<svg xmlns="http://www.w3.org/2000/svg" xmlns:xlink="http://www.w3.org/1999/xlink" width="500" zoomAndPan="magnify" viewBox="0 0 375 374.999991" height="500" preserveAspectRatio="xMidYMid meet" version="1.0"><defs><clipPath id="4e0a970848"><path d="M 83.195312 37.5 L 291.695312 37.5 L 291.695312 342.75 L 83.195312 342.75 Z M 83.195312 37.5 " clip-rule="nonzero"/></clipPath></defs><g clip-path="url(#4e0a970848)"><path fill="#f59e0b" d="M 180.585938 37.523438 C 173.003906 37.523438 166.714844 43.8125 166.714844 51.390625 L 166.714844 120.738281 L 97.371094 120.738281 C 89.789062 120.738281 83.5 127.027344 83.5 134.605469 L 83.5 148.476562 C 83.5 156.054688 89.789062 162.34375 97.371094 162.34375 L 166.714844 162.34375 L 166.714844 328.773438 C 166.714844 336.351562 173.003906 342.640625 180.585938 342.640625 L 194.453125 342.640625 C 202.035156 342.640625 208.324219 336.351562 208.324219 328.773438 L 208.324219 162.34375 L 277.667969 162.34375 C 285.246094 162.34375 291.535156 156.054688 291.535156 148.476562 L 291.535156 134.605469 C 291.535156 127.027344 285.246094 120.738281 277.667969 120.738281 L 208.324219 120.738281 L 208.324219 51.390625 C 208.324219 43.8125 202.035156 37.523438 194.453125 37.523438 Z M 180.585938 37.523438 " fill-opacity="1" fill-rule="nonzero"/></g></svg>