<svg xmlns="http://www.w3.org/2000/svg" xmlns:xlink="http://www.w3.org/1999/xlink" width="500" zoomAndPan="magnify" viewBox="0 0 375 374.999991" height="500" preserveAspectRatio="xMidYMid meet" version="1.0"><defs><clipPath id="07a3d03e93"><path d="M 227 100 L 331.125 100 L 331.125 213 L 227 213 Z M 227 100 " clip-rule="nonzero"/></clipPath><clipPath id="3c40f7f80d"><path d="M 43.875 100 L 148 100 L 148 213 L 43.875 213 Z M 43.875 100 " clip-rule="nonzero"/></clipPath></defs><path fill="#f59e0b" d="M 101.839844 197.753906 C 96.777344 197.753906 92.695312 193.671875 92.695312 188.609375 L 92.695312 151.359375 C 92.695312 146.296875 96.777344 142.214844 101.839844 142.214844 C 106.90625 142.214844 110.984375 146.296875 110.984375 151.359375 L 110.984375 188.609375 C 110.984375 193.671875 106.90625 197.753906 101.839844 197.753906 Z M 101.839844 197.753906 " fill-opacity="1" fill-rule="nonzero"/><path fill="#f59e0b" d="M 157.019531 336.886719 C 141.828125 336.886719 129.480469 324.539062 129.480469 309.347656 L 129.480469 282.972656 C 129.480469 277.910156 133.5625 273.828125 138.625 273.828125 C 143.6875 273.828125 147.769531 277.910156 147.769531 282.972656 L 147.769531 309.347656 C 147.769531 314.464844 151.929688 318.597656 157.019531 318.597656 C 162.105469 318.597656 166.265625 314.4375 166.265625 309.347656 L 166.265625 188.609375 C 166.265625 183.546875 170.347656 179.464844 175.410156 179.464844 C 180.472656 179.464844 184.554688 183.546875 184.554688 188.609375 L 184.554688 309.347656 C 184.554688 324.539062 172.207031 336.886719 157.019531 336.886719 Z M 157.019531 336.886719 " fill-opacity="1" fill-rule="nonzero"/><path fill="#f59e0b" d="M 120.234375 336.886719 C 105.042969 336.886719 92.695312 324.539062 92.695312 309.347656 L 92.695312 188.609375 C 92.695312 183.546875 96.777344 179.464844 101.839844 179.464844 C 106.90625 179.464844 110.984375 183.546875 110.984375 188.609375 L 110.984375 309.347656 C 110.984375 314.464844 115.144531 318.597656 120.234375 318.597656 C 125.324219 318.597656 129.480469 314.4375 129.480469 309.347656 L 129.480469 216.507812 C 129.480469 211.445312 133.5625 207.363281 138.625 207.363281 C 143.6875 207.363281 147.769531 211.445312 147.769531 216.507812 L 147.769531 309.347656 C 147.769531 324.539062 135.421875 336.886719 120.234375 336.886719 Z M 120.234375 336.886719 " fill-opacity="1" fill-rule="nonzero"/><path fill="#f59e0b" d="M 254.6875 336.886719 C 239.5 336.886719 227.152344 324.539062 227.152344 309.347656 L 227.152344 282.972656 C 227.152344 277.910156 231.234375 273.828125 236.296875 273.828125 C 241.359375 273.828125 245.441406 277.910156 245.441406 282.972656 L 245.441406 309.347656 C 245.441406 314.464844 249.601562 318.597656 254.6875 318.597656 C 259.777344 318.597656 263.9375 314.4375 263.9375 309.347656 L 263.9375 152.960938 C 263.9375 147.898438 268.019531 143.816406 273.082031 143.816406 C 278.144531 143.816406 282.226562 147.898438 282.226562 152.960938 L 282.226562 309.347656 C 282.226562 324.539062 269.878906 336.886719 254.6875 336.886719 Z M 254.6875 336.886719 " fill-opacity="1" fill-rule="nonzero"/><path fill="#f59e0b" d="M 217.878906 336.886719 C 202.6875 336.886719 190.339844 324.539062 190.339844 309.347656 L 190.339844 188.609375 C 190.339844 183.546875 194.421875 179.464844 199.484375 179.464844 C 204.550781 179.464844 208.628906 183.546875 208.628906 188.609375 L 208.628906 309.347656 C 208.628906 314.464844 212.789062 318.597656 217.878906 318.597656 C 222.96875 318.597656 227.125 314.4375 227.125 309.347656 L 227.125 216.507812 C 227.125 211.445312 231.207031 207.363281 236.269531 207.363281 C 241.332031 207.363281 245.414062 211.445312 245.414062 216.507812 L 245.414062 309.347656 C 245.414062 324.539062 233.066406 336.886719 217.878906 336.886719 Z M 217.878906 336.886719 " fill-opacity="1" fill-rule="nonzero"/><path fill="#f59e0b" d="M 175.4375 197.753906 C 170.375 197.753906 166.292969 193.671875 166.292969 188.609375 L 166.292969 131.625 C 166.292969 125.296875 170.089844 119.742188 175.980469 117.445312 L 222.242188 99.308594 C 226.945312 97.476562 232.242188 99.773438 234.101562 104.476562 C 235.933594 109.179688 233.636719 114.472656 228.933594 116.332031 L 184.582031 133.71875 L 184.582031 188.609375 C 184.582031 193.671875 180.5 197.753906 175.4375 197.753906 Z M 175.4375 197.753906 " fill-opacity="1" fill-rule="nonzero"/><path fill="#f59e0b" d="M 161.488281 107.445312 C 157.691406 107.445312 154.152344 105.070312 152.832031 101.273438 C 151.207031 96.496094 153.738281 91.300781 158.515625 89.648438 L 200.234375 75.339844 C 205.015625 73.710938 210.207031 76.242188 211.859375 81.019531 C 213.488281 85.800781 210.957031 90.992188 206.175781 92.644531 L 164.457031 106.957031 C 163.476562 107.292969 162.46875 107.445312 161.488281 107.445312 Z M 161.488281 107.445312 " fill-opacity="1" fill-rule="nonzero"/><path fill="#f59e0b" d="M 199.484375 197.753906 C 194.421875 197.753906 190.339844 193.671875 190.339844 188.609375 L 190.339844 157.457031 L 178.433594 161.617188 C 173.679688 163.269531 168.460938 160.765625 166.78125 156.011719 C 165.105469 151.230469 167.636719 146.039062 172.386719 144.359375 L 188.351562 138.78125 C 193.027344 137.152344 198.195312 137.878906 202.199219 140.746094 C 206.203125 143.585938 208.605469 148.234375 208.605469 153.167969 L 208.605469 188.609375 C 208.605469 193.671875 204.523438 197.753906 199.460938 197.753906 Z M 199.484375 197.753906 " fill-opacity="1" fill-rule="nonzero"/><path fill="#f59e0b" d="M 138.625 119.046875 C 117.960938 119.046875 101.117188 102.230469 101.117188 81.539062 L 101.117188 75.675781 C 101.144531 55.007812 117.960938 38.191406 138.625 38.191406 C 159.292969 38.191406 176.132812 55.007812 176.132812 75.699219 L 176.132812 81.5625 C 176.132812 102.230469 159.316406 119.070312 138.625 119.070312 Z M 138.625 56.480469 C 128.035156 56.480469 119.40625 65.109375 119.40625 75.699219 L 119.40625 81.5625 C 119.40625 92.15625 128.035156 100.78125 138.625 100.78125 C 149.21875 100.78125 157.84375 92.15625 157.84375 81.5625 L 157.84375 75.699219 C 157.84375 65.109375 149.21875 56.480469 138.625 56.480469 Z M 138.625 56.480469 " fill-opacity="1" fill-rule="nonzero"/><path fill="#f59e0b" d="M 236.269531 119.046875 C 215.605469 119.046875 198.761719 102.230469 198.761719 81.539062 L 198.761719 75.675781 C 198.761719 55.007812 215.578125 38.167969 236.269531 38.167969 C 256.960938 38.167969 273.777344 54.984375 273.777344 75.675781 L 273.777344 81.539062 C 273.777344 102.203125 256.960938 119.046875 236.269531 119.046875 Z M 236.269531 56.480469 C 225.679688 56.480469 217.050781 65.109375 217.050781 75.699219 L 217.050781 81.5625 C 217.050781 92.15625 225.679688 100.78125 236.269531 100.78125 C 246.863281 100.78125 255.488281 92.15625 255.488281 81.5625 L 255.488281 75.699219 C 255.488281 65.109375 246.863281 56.480469 236.269531 56.480469 Z M 236.269531 56.480469 " fill-opacity="1" fill-rule="nonzero"/><g clip-path="url(#07a3d03e93)"><path fill="#f59e0b" d="M 306.921875 212.96875 C 297.570312 212.96875 288.96875 207.46875 285.039062 198.96875 L 264.789062 155.160156 C 262.671875 150.585938 264.660156 145.136719 269.257812 143.019531 C 273.855469 140.898438 279.28125 142.886719 281.398438 147.488281 L 301.652344 191.296875 C 302.605469 193.339844 304.671875 194.679688 306.945312 194.679688 C 309.8125 194.679688 311.335938 192.796875 311.855469 191.996094 C 312.371094 191.195312 313.457031 189.023438 312.242188 186.414062 L 289.511719 137.152344 C 284.421875 126.148438 273.3125 119.046875 261.222656 119.046875 L 236.347656 119.046875 C 231.285156 119.046875 227.203125 114.964844 227.203125 109.902344 C 227.203125 104.839844 231.285156 100.757812 236.347656 100.757812 L 261.222656 100.757812 C 280.441406 100.757812 298.058594 112.019531 306.121094 129.480469 L 328.851562 178.742188 C 332.3125 186.261719 331.71875 194.886719 327.277344 201.835938 C 322.832031 208.785156 315.238281 212.945312 306.972656 212.945312 Z M 306.921875 212.96875 " fill-opacity="1" fill-rule="nonzero"/></g><g clip-path="url(#3c40f7f80d)"><path fill="#f59e0b" d="M 68 212.96875 C 59.734375 212.96875 52.140625 208.8125 47.699219 201.863281 C 43.253906 194.886719 42.660156 186.261719 46.121094 178.769531 L 68.855469 129.507812 C 76.914062 112.046875 94.53125 100.78125 113.75 100.78125 L 138.625 100.78125 C 143.6875 100.78125 147.769531 104.863281 147.769531 109.925781 C 147.769531 114.988281 143.6875 119.070312 138.625 119.070312 L 113.75 119.070312 C 101.636719 119.070312 90.527344 126.175781 85.464844 137.179688 L 62.707031 186.414062 C 61.492188 189.023438 62.578125 191.195312 63.09375 191.996094 C 63.609375 192.796875 65.109375 194.679688 68 194.679688 C 70.273438 194.679688 72.339844 193.363281 73.296875 191.296875 L 93.550781 147.511719 C 95.667969 142.941406 101.09375 140.925781 105.691406 143.042969 C 110.261719 145.160156 112.277344 150.585938 110.160156 155.183594 L 89.90625 198.996094 C 85.980469 207.492188 77.378906 212.996094 68.027344 212.996094 Z M 68 212.96875 " fill-opacity="1" fill-rule="nonzero"/></g></svg>