<svg xmlns="http://www.w3.org/2000/svg" xmlns:xlink="http://www.w3.org/1999/xlink" width="500" zoomAndPan="magnify" viewBox="0 0 375 374.999991" height="500" preserveAspectRatio="xMidYMid meet" version="1.0"><defs><clipPath id="a48caa493e"><path d="M 37.5 53 L 335 53 L 335 332 L 37.5 332 Z M 37.5 53 " clip-rule="nonzero"/></clipPath></defs><g clip-path="url(#a48caa493e)"><path fill="#f59e0b" d="M 329.191406 61.066406 C 327.570312 60.335938 288.683594 43.558594 252.988281 61.222656 C 223.195312 75.964844 185.199219 116.886719 197.429688 158.125 C 193.511719 166.484375 190.582031 175.214844 188.546875 184.253906 C 185.148438 171.765625 168.582031 119.8125 124.992188 100.421875 C 75.339844 78.367188 41.996094 106.539062 40.636719 107.738281 C 38.386719 109.675781 37.449219 112.707031 38.179688 115.578125 C 38.441406 116.519531 62.273438 205.578125 157.5 205.578125 C 163.195312 205.578125 169.15625 205.265625 175.425781 204.585938 C 175.636719 204.585938 175.792969 204.480469 176 204.480469 C 179.609375 210.703125 182.324219 217.339844 183.738281 224.238281 C 179.398438 278.855469 181.960938 323.855469 181.960938 324.378906 C 182.222656 328.558594 185.671875 331.746094 189.800781 331.746094 C 189.957031 331.746094 190.113281 331.746094 190.269531 331.746094 C 194.609375 331.484375 197.902344 327.773438 197.640625 323.4375 C 197.640625 322.863281 194.242188 263.332031 202.03125 198.628906 C 203.128906 189.585938 205.269531 180.964844 208.457031 172.601562 C 208.667969 172.601562 208.875 172.707031 209.136719 172.707031 C 209.347656 172.707031 209.554688 172.707031 209.765625 172.707031 C 211.019531 172.601562 337.238281 161.992188 334 67.863281 C 333.894531 64.882812 332.0625 62.164062 329.347656 60.964844 Z M 54.957031 116.78125 C 63.894531 111.242188 87.152344 100.738281 118.667969 114.742188 C 143.179688 125.613281 157.96875 149.867188 166.019531 168.054688 C 140.773438 144.535156 110.515625 130.738281 108.476562 129.847656 C 104.554688 128.070312 99.902344 129.847656 98.128906 133.820312 C 96.351562 137.792969 98.128906 142.390625 102.097656 144.167969 C 102.621094 144.429688 140.984375 161.886719 165.234375 189.742188 C 87.832031 193.925781 61.226562 134.867188 54.957031 116.78125 Z M 216.246094 156.292969 C 228.683594 134.96875 248.859375 116.050781 277.1875 99.167969 C 280.898438 96.972656 282.097656 92.113281 279.902344 88.402344 C 277.710938 84.691406 272.847656 83.488281 269.136719 85.683594 C 244.15625 100.578125 224.921875 117.09375 211.226562 135.386719 C 215.042969 108.316406 242.273438 84.011719 259.992188 75.230469 C 269.660156 70.476562 279.800781 68.855469 289.050781 68.855469 C 301.488281 68.855469 312.359375 71.730469 318.214844 73.664062 C 316.4375 137.0625 241.070312 152.792969 216.195312 156.242188 Z M 216.246094 156.292969 " fill-opacity="1" fill-rule="nonzero"/></g></svg>